<?xml version="1.0" encoding="UTF-8"?>
<svg width="718px" height="560px" viewBox="0 0 718 560" version="1.1" xmlns="http://www.w3.org/2000/svg" xmlns:xlink="http://www.w3.org/1999/xlink">
    <!-- Generator: Sketch 62 (91390) - https://sketch.com -->
    <title>clean</title>
    <desc>Created with Sketch.</desc>
    <g id="Page-1" stroke="none" stroke-width="1" fill="none" fill-rule="evenodd">
        <g id="clean" transform="translate(1.000000, 1.000000)">
            <g id="domain" transform="translate(133.000000, 298.000000)">
                <path d="M0,0 L582,0 L582,111 L0,111 L0,0 Z" id="Rectangle" stroke="#979797" stroke-width="2" stroke-dasharray="4,4"></path>
                <rect id="Rectangle" stroke="#979797" stroke-width="2" x="37" y="24" width="163" height="55" rx="2"></rect>
                <text id="CLOC" font-family="PingFangSC-Semibold, PingFang SC" font-size="18" font-weight="500" fill="#000000">
                    <tspan x="93.521" y="56">CLOC</tspan>
                </text>
                <rect id="Rectangle" stroke="#979797" stroke-width="2" x="226" y="24" width="163" height="55" rx="2"></rect>
                <text id="Commits" font-family="PingFangSC-Semibold, PingFang SC" font-size="18" font-weight="500" fill="#000000">
                    <tspan x="269.642" y="56">Commits</tspan>
                </text>
                <rect id="Rectangle" stroke="#979797" stroke-width="2" x="411" y="22" width="163" height="55" rx="2"></rect>
                <text id="…" font-family="PingFangSC-Semibold, PingFang SC" font-size="18" font-weight="500" fill="#000000">
                    <tspan x="484" y="54">…</tspan>
                </text>
                <text font-family="PingFangSC-Semibold, PingFang SC" font-size="18" font-weight="500" fill="#000000">
                    <tspan x="510" y="98">domain</tspan>
                </text>
            </g>
            <g id="app" transform="translate(1.000000, 149.000000)">
                <path d="M0,0 L715,0 L715,111 L0,111 L0,0 Z" id="Rectangle" stroke="#979797" stroke-width="2" stroke-dasharray="4,4"></path>
                <text id="application" font-family="PingFangSC-Semibold, PingFang SC" font-size="18" font-weight="500" fill="#000000">
                    <tspan x="612" y="98">application</tspan>
                </text>
                <rect id="Rectangle" stroke="#979797" stroke-width="2" x="38" y="10" width="156" height="39" rx="2"></rect>
                <rect id="Rectangle" stroke="#979797" stroke-width="2" x="38" y="62" width="156" height="39" rx="2"></rect>
                <rect id="Rectangle" stroke="#979797" stroke-width="2" x="230" y="13" width="156" height="39" rx="2"></rect>
                <rect id="Rectangle" stroke="#979797" stroke-width="2" x="230" y="65" width="156" height="39" rx="2"></rect>
                <rect id="Rectangle" stroke="#979797" stroke-width="2" x="422" y="13" width="156" height="39" rx="2"></rect>
                <rect id="Rectangle" stroke="#979797" stroke-width="2" x="422" y="65" width="156" height="39" rx="2"></rect>
                <text id="cloc-analysis" font-family="PingFangSC-Semibold, PingFang SC" font-size="18" font-weight="500" fill="#000000">
                    <tspan x="61" y="36">cloc analysis</tspan>
                </text>
                <text id="commits-analysis" font-family="PingFangSC-Semibold, PingFang SC" font-size="18" font-weight="500" fill="#000000">
                    <tspan x="234" y="39">commits analysis</tspan>
                </text>
                <text id="branch-analysis" font-family="PingFangSC-Semibold, PingFang SC" font-size="18" font-weight="500" fill="#000000">
                    <tspan x="50" y="88">branch analysis</tspan>
                </text>
                <text id="team-analysis" font-family="PingFangSC-Semibold, PingFang SC" font-size="18" font-weight="500" fill="#000000">
                    <tspan x="242" y="91">team analysis</tspan>
                </text>
                <text id="visual-builder" font-family="PingFangSC-Semibold, PingFang SC" font-size="18" font-weight="500" fill="#000000">
                    <tspan x="443" y="39">visual builder</tspan>
                </text>
                <text id="…" font-family="PingFangSC-Semibold, PingFang SC" font-size="18" font-weight="500" fill="#000000">
                    <tspan x="443" y="88">…</tspan>
                </text>
            </g>
            <g id="infra" transform="translate(0.000000, 447.000000)">
                <g id="Group-3" transform="translate(29.000000, 14.000000)">
                    <rect id="Rectangle" stroke="#979797" stroke-width="2" x="0" y="0" width="189" height="39" rx="2"></rect>
                    <text id="framework-detector" font-family="PingFangSC-Semibold, PingFang SC" font-size="18" font-weight="500" fill="#000000">
                        <tspan x="12" y="26">framework detector</tspan>
                    </text>
                </g>
                <g id="Group-3" transform="translate(243.000000, 14.000000)">
                    <rect id="Rectangle" stroke="#979797" stroke-width="2" x="0" y="0" width="189" height="39" rx="2"></rect>
                    <text id="file-scanner" font-family="PingFangSC-Semibold, PingFang SC" font-size="18" font-weight="500" fill="#000000">
                        <tspan x="12" y="26">file scanner</tspan>
                    </text>
                </g>
                <g id="Group-3" transform="translate(460.000000, 14.000000)">
                    <rect id="Rectangle" stroke="#979797" stroke-width="2" x="0" y="0" width="189" height="39" rx="2"></rect>
                    <text id="cloud-native-identif" font-family="PingFangSC-Semibold, PingFang SC" font-size="18" font-weight="500" fill="#000000">
                        <tspan x="7" y="26">cloud native identify</tspan>
                    </text>
                </g>
                <g id="Group-3" transform="translate(457.000000, 64.000000)">
                    <rect id="Rectangle" stroke="#979797" stroke-width="2" x="0" y="0" width="124" height="39" rx="2"></rect>
                    <text id="…" font-family="PingFangSC-Semibold, PingFang SC" font-size="18" font-weight="500" fill="#000000">
                        <tspan x="4" y="26">…</tspan>
                    </text>
                </g>
                <g id="Group-3" transform="translate(243.000000, 64.000000)">
                    <rect id="Rectangle" stroke="#979797" stroke-width="2" x="0" y="0" width="189" height="39" rx="2"></rect>
                    <text id="cloc-framework" font-family="PingFangSC-Semibold, PingFang SC" font-size="18" font-weight="500" fill="#000000">
                        <tspan x="12" y="26">cloc framework</tspan>
                    </text>
                </g>
                <g id="Group-3" transform="translate(29.000000, 64.000000)">
                    <rect id="Rectangle" stroke="#979797" stroke-width="2" x="0" y="0" width="189" height="39" rx="2"></rect>
                    <text id="git-api" font-family="PingFangSC-Semibold, PingFang SC" font-size="18" font-weight="500" fill="#000000">
                        <tspan x="12" y="26">git api</tspan>
                    </text>
                </g>
                <path d="M0,0 L715,0 L715,111 L0,111 L0,0 Z" id="Rectangle" stroke="#979797" stroke-width="2" stroke-dasharray="4,4"></path>
                <text id="infrastructure" font-family="PingFangSC-Semibold, PingFang SC" font-size="18" font-weight="500" fill="#000000">
                    <tspan x="590" y="97">infrastructure</tspan>
                </text>
            </g>
            <g id="bin" transform="translate(1.000000, 0.000000)">
                <path d="M0,0 L715,0 L715,111 L0,111 L0,0 Z" id="Rectangle" stroke="#979797" stroke-width="2" stroke-dasharray="4,4"></path>
                <text font-family="PingFangSC-Semibold, PingFang SC" font-size="18" font-weight="500" fill="#000000">
                    <tspan x="680" y="98">bin</tspan>
                </text>
                <rect id="Rectangle" stroke="#979797" stroke-width="2" x="47" y="29" width="167" height="52" rx="2"></rect>
                <rect id="Rectangle" stroke="#979797" stroke-width="2" x="252" y="29" width="167" height="52" rx="2"></rect>
                <rect id="Rectangle" stroke="#979797" stroke-width="2" x="477" y="29" width="167" height="52" rx="2"></rect>
                <text id="visual" font-family="PingFangSC-Semibold, PingFang SC" font-size="18" font-weight="500" fill="#000000">
                    <tspan x="106" y="61">visual</tspan>
                </text>
                <text id="visual" font-family="PingFangSC-Semibold, PingFang SC" font-size="18" font-weight="500" fill="#000000">
                    <tspan x="106" y="61">visual</tspan>
                </text>
                <text id="coco" font-family="PingFangSC-Semibold, PingFang SC" font-size="18" font-weight="500" fill="#000000">
                    <tspan x="311" y="61">coco</tspan>
                </text>
                <text id="suggest" font-family="PingFangSC-Semibold, PingFang SC" font-size="18" font-weight="500" fill="#000000">
                    <tspan x="527" y="62">suggest</tspan>
                </text>
            </g>
            <path id="Line" d="M22.0155428,116.984617 L25.0153834,117.015543 L24.9999203,118.515463 L24.9043499,127.785794 L24.798,138.038 L31.1044399,127.094746 L31.8532699,125.795033 L34.4526957,127.292693 L33.7038656,128.592406 L24.5394042,144.498777 L23.2081507,146.809378 L21.9248165,144.471822 L13.0902344,128.379894 L12.3683589,127.065019 L14.9981085,125.621268 L15.719984,126.936143 L21.798,138.009 L21.9045093,127.754868 L22.0000797,118.484537 L22.0155428,116.984617 Z" fill="#979797" fill-rule="nonzero"></path>
            <path id="Line" d="M22.0010787,264.998922 L25.001078,265.001079 L24.9999996,266.501078 L24.8857822,425.377498 L24.878,435.649 L31.078947,424.645142 L31.8152785,423.338308 L34.4289471,424.810971 L33.6926156,426.117806 L24.6811154,442.111331 L23.3720815,444.434592 L22.0663894,442.109452 L13.0778943,426.102986 L12.3434425,424.795094 L14.9592258,423.32619 L15.6936776,424.634082 L21.878,435.648 L21.885783,425.375341 L22.0000004,266.498922 L22.0010787,264.998922 Z" fill="#979797" fill-rule="nonzero"></path>
            <path id="Line" d="M205.010989,264.989091 L208.010909,265.010989 L207.99996,266.510949 L207.921844,277.212849 L207.846,287.472 L214.119786,276.508676 L214.8647,275.206716 L217.468622,276.696545 L216.723707,277.998506 L207.607162,293.932388 L206.282869,296.246985 L204.992505,293.913303 L196.10953,277.848038 L195.3837,276.535341 L198.009092,275.083682 L198.734922,276.396378 L204.846,287.45 L204.921924,277.190952 L205.00004,266.489051 L205.010989,264.989091 Z" fill="#979797" fill-rule="nonzero"></path>
        </g>
    </g>
</svg>